<?xml version="1.0" encoding="UTF-8" standalone="no"?>
<!DOCTYPE svg PUBLIC "-//W3C//DTD SVG 1.1//EN"
 "http://www.w3.org/Graphics/SVG/1.1/DTD/svg11.dtd">
<!-- Generated by graphviz version 2.34.0 (20131024.1248)
 -->
<!-- Title: controllers_diagram Pages: 1 -->
<svg width="605pt" height="416pt"
 viewBox="0.00 0.00 605.00 416.00" xmlns="http://www.w3.org/2000/svg" xmlns:xlink="http://www.w3.org/1999/xlink">
<g id="graph0" class="graph" transform="scale(1 1) rotate(0) translate(4 412)">
<title>controllers_diagram</title>
<polygon fill="white" stroke="white" points="-4,4 -4,-412 601,-412 601,4 -4,4"/>
<!-- _diagram_info -->
<g id="node1" class="node"><title>_diagram_info</title>
<text text-anchor="start" x="398" y="-393.6" font-family="Times,serif" font-size="13.00">Controllers diagram</text>
<text text-anchor="start" x="398" y="-379.6" font-family="Times,serif" font-size="13.00">Date: May 26 2014 &#45; 11:10</text>
<text text-anchor="start" x="398" y="-365.6" font-family="Times,serif" font-size="13.00">Migration version: 20140410072631</text>
<text text-anchor="start" x="398" y="-351.6" font-family="Times,serif" font-size="13.00">Generated by RailRoady 1.1.1</text>
<text text-anchor="start" x="398" y="-337.6" font-family="Times,serif" font-size="13.00">http://railroady.prestonlee.com</text>
</g>
<!-- ApplicationController -->
<g id="node2" class="node"><title>ApplicationController</title>
<path fill="none" stroke="black" d="M12,-114.921C12,-114.921 197,-114.921 197,-114.921 203,-114.921 209,-120.921 209,-126.921 209,-126.921 209,-210.921 209,-210.921 209,-216.921 203,-222.921 197,-222.921 197,-222.921 12,-222.921 12,-222.921 6,-222.921 -1.42109e-14,-216.921 -1.42109e-14,-210.921 -1.42109e-14,-210.921 -1.42109e-14,-126.921 -1.42109e-14,-126.921 -1.42109e-14,-120.921 6,-114.921 12,-114.921"/>
<text text-anchor="middle" x="104.5" y="-207.721" font-family="Times,serif" font-size="14.00">ApplicationController</text>
<polyline fill="none" stroke="black" points="-1.42109e-14,-199.921 209,-199.921 "/>
<text text-anchor="start" x="8" y="-184.721" font-family="Times,serif" font-size="14.00">_one_time_conditions_valid_10?</text>
<text text-anchor="start" x="8" y="-169.721" font-family="Times,serif" font-size="14.00">_one_time_conditions_valid_8?</text>
<polyline fill="none" stroke="black" points="-1.42109e-14,-161.921 209,-161.921 "/>
<polyline fill="none" stroke="black" points="-1.42109e-14,-137.921 209,-137.921 "/>
<text text-anchor="start" x="8" y="-122.721" font-family="Times,serif" font-size="14.00">_layout</text>
</g>
<!-- SmartHomeController -->
<g id="node3" class="node"><title>SmartHomeController</title>
<path fill="none" stroke="black" d="M229,-0.5C229,-0.5 414,-0.5 414,-0.5 420,-0.5 426,-6.5 426,-12.5 426,-12.5 426,-260.5 426,-260.5 426,-266.5 420,-272.5 414,-272.5 414,-272.5 229,-272.5 229,-272.5 223,-272.5 217,-266.5 217,-260.5 217,-260.5 217,-12.5 217,-12.5 217,-6.5 223,-0.5 229,-0.5"/>
<text text-anchor="middle" x="321.5" y="-257.3" font-family="Times,serif" font-size="14.00">SmartHomeController</text>
<polyline fill="none" stroke="black" points="217,-249.5 426,-249.5 "/>
<text text-anchor="start" x="225" y="-234.3" font-family="Times,serif" font-size="14.00">_one_time_conditions_valid_12?</text>
<text text-anchor="start" x="225" y="-219.3" font-family="Times,serif" font-size="14.00">cache_actions</text>
<text text-anchor="start" x="225" y="-204.3" font-family="Times,serif" font-size="14.00">cache_conditions</text>
<text text-anchor="start" x="225" y="-189.3" font-family="Times,serif" font-size="14.00">change_actor</text>
<text text-anchor="start" x="225" y="-174.3" font-family="Times,serif" font-size="14.00">change_sensor</text>
<text text-anchor="start" x="225" y="-159.3" font-family="Times,serif" font-size="14.00">home</text>
<text text-anchor="start" x="225" y="-144.3" font-family="Times,serif" font-size="14.00">new_actions</text>
<text text-anchor="start" x="225" y="-129.3" font-family="Times,serif" font-size="14.00">new_rule</text>
<text text-anchor="start" x="225" y="-114.3" font-family="Times,serif" font-size="14.00">new_rule_name</text>
<text text-anchor="start" x="225" y="-99.3" font-family="Times,serif" font-size="14.00">rule_list</text>
<text text-anchor="start" x="225" y="-84.3" font-family="Times,serif" font-size="14.00">save_rule</text>
<text text-anchor="start" x="225" y="-69.3" font-family="Times,serif" font-size="14.00">set_room_id</text>
<text text-anchor="start" x="225" y="-54.3" font-family="Times,serif" font-size="14.00">show_rule</text>
<polyline fill="none" stroke="black" points="217,-46.5 426,-46.5 "/>
<text text-anchor="start" x="225" y="-31.3" font-family="Times,serif" font-size="14.00">set_engine</text>
<polyline fill="none" stroke="black" points="217,-23.5 426,-23.5 "/>
<text text-anchor="start" x="225" y="-8.3" font-family="Times,serif" font-size="14.00">_layout</text>
</g>
<!-- ApplicationController&#45;&gt;SmartHomeController -->
<g id="edge1" class="edge"><title>ApplicationController&#45;&gt;SmartHomeController</title>
<path fill="none" stroke="black" d="M209.186,-153.28C209.999,-153.159 210.812,-153.037 211.625,-152.916"/>
<polyline fill="none" stroke="black" points="216.992,-152.114 212.047,-152.853 "/>
</g>
</g>
</svg>
