<?xml version="1.0" encoding="UTF-8" standalone="no"?>
<!DOCTYPE svg PUBLIC "-//W3C//DTD SVG 1.1//EN"
 "http://www.w3.org/Graphics/SVG/1.1/DTD/svg11.dtd">
<!-- Generated by graphviz version 2.34.0 (20131024.1248)
 -->
<!-- Title: models_diagram Pages: 1 -->
<svg width="671pt" height="302pt"
 viewBox="0.00 0.00 671.00 302.00" xmlns="http://www.w3.org/2000/svg" xmlns:xlink="http://www.w3.org/1999/xlink">
<g id="graph0" class="graph" transform="scale(1 1) rotate(0) translate(4 298)">
<title>models_diagram</title>
<polygon fill="white" stroke="white" points="-4,4 -4,-298 667,-298 667,4 -4,4"/>
<!-- _diagram_info -->
<g id="node1" class="node"><title>_diagram_info</title>
<text text-anchor="start" x="7.5" y="-279.6" font-family="Times,serif" font-size="13.00">Models diagram</text>
<text text-anchor="start" x="7.5" y="-265.6" font-family="Times,serif" font-size="13.00">Date: May 26 2014 &#45; 11:10</text>
<text text-anchor="start" x="7.5" y="-251.6" font-family="Times,serif" font-size="13.00">Migration version: 20140410072631</text>
<text text-anchor="start" x="7.5" y="-237.6" font-family="Times,serif" font-size="13.00">Generated by RailRoady 1.1.1</text>
<text text-anchor="start" x="7.5" y="-223.6" font-family="Times,serif" font-size="13.00">http://railroady.prestonlee.com</text>
</g>
<!-- Activity -->
<g id="node2" class="node"><title>Activity</title>
<ellipse fill="none" stroke="black" cx="160" cy="-18" rx="39.9464" ry="18"/>
<text text-anchor="middle" x="160" y="-14.3" font-family="Times,serif" font-size="14.00">Activity</text>
</g>
<!-- Actor -->
<g id="node3" class="node"><title>Actor</title>
<ellipse fill="none" stroke="black" cx="185" cy="-162" rx="32.2457" ry="18"/>
<text text-anchor="middle" x="185" y="-158.3" font-family="Times,serif" font-size="14.00">Actor</text>
</g>
<!-- Actor&#45;&gt;Activity -->
<g id="edge4" class="edge"><title>Actor&#45;&gt;Activity</title>
<path fill="none" stroke="#bd1ca5" d="M180.586,-135.929C176.149,-110.725 169.33,-71.9942 164.77,-46.0947"/>
<ellipse fill="none" stroke="#bd1ca5" cx="181.291" cy="-139.932" rx="4.00001" ry="4.00001"/>
<polygon fill="#bd1ca5" stroke="#bd1ca5" points="164.76,-46.0378 167.458,-35.409 163.893,-41.1135 163.026,-36.1893 163.026,-36.1893 163.026,-36.1893 163.893,-41.1135 158.594,-36.9696 164.76,-46.0378 164.76,-46.0378"/>
</g>
<!-- Condition -->
<g id="node4" class="node"><title>Condition</title>
<ellipse fill="none" stroke="black" cx="289" cy="-18" rx="48.6179" ry="18"/>
<text text-anchor="middle" x="289" y="-14.3" font-family="Times,serif" font-size="14.00">Condition</text>
</g>
<!-- Actor&#45;&gt;Condition -->
<g id="edge3" class="edge"><title>Actor&#45;&gt;Condition</title>
<path fill="none" stroke="#9a73a4" d="M189.842,-135.922C194.438,-116.962 202.807,-91.0344 217,-72 226.894,-58.7305 241.039,-47.3193 254.176,-38.5208"/>
<ellipse fill="none" stroke="#9a73a4" cx="188.93" cy="-139.936" rx="4.00001" ry="4.00001"/>
<polygon fill="#9a73a4" stroke="#9a73a4" points="254.187,-38.5142 265.035,-36.9131 258.398,-35.8186 262.609,-33.123 262.609,-33.123 262.609,-33.123 258.398,-35.8186 260.183,-29.3329 254.187,-38.5142 254.187,-38.5142"/>
</g>
<!-- Rule -->
<g id="node7" class="node"><title>Rule</title>
<ellipse fill="none" stroke="black" cx="255" cy="-90" rx="28.3955" ry="18"/>
<text text-anchor="middle" x="255" y="-86.3" font-family="Times,serif" font-size="14.00">Rule</text>
</g>
<!-- Actor&#45;&gt;Rule -->
<g id="edge2" class="edge"><title>Actor&#45;&gt;Rule</title>
<path fill="none" stroke="#4e9760" d="M207.304,-138.696C215.569,-130.431 224.926,-121.074 233.15,-112.85"/>
<polygon fill="#4e9760" stroke="#4e9760" points="207.26,-138.74 197.007,-142.629 203.725,-142.275 200.189,-145.811 200.189,-145.811 200.189,-145.811 203.725,-142.275 203.371,-148.993 207.26,-138.74 207.26,-138.74"/>
<polygon fill="#4e9760" stroke="#4e9760" points="233.249,-112.751 243.502,-108.862 236.785,-109.215 240.32,-105.68 240.32,-105.68 240.32,-105.68 236.785,-109.215 237.138,-102.498 233.249,-112.751 233.249,-112.751"/>
</g>
<!-- Person -->
<g id="node5" class="node"><title>Person</title>
<ellipse fill="none" stroke="black" cx="437" cy="-162" rx="36.096" ry="18"/>
<text text-anchor="middle" x="437" y="-158.3" font-family="Times,serif" font-size="14.00">Person</text>
</g>
<!-- Room -->
<g id="node6" class="node"><title>Room</title>
<ellipse fill="none" stroke="black" cx="526" cy="-162" rx="34.1708" ry="18"/>
<text text-anchor="middle" x="526" y="-158.3" font-family="Times,serif" font-size="14.00">Room</text>
</g>
<!-- Rule&#45;&gt;Activity -->
<g id="edge10" class="edge"><title>Rule&#45;&gt;Activity</title>
<path fill="none" stroke="#0abdde" d="M230.292,-70.7937C217.477,-61.3514 201.762,-49.7717 188.443,-39.9577"/>
<ellipse fill="none" stroke="#0abdde" cx="233.911" cy="-73.4607" rx="4.00002" ry="4.00002"/>
<polygon fill="#0abdde" stroke="#0abdde" points="188.141,-39.7358 182.76,-30.181 184.116,-36.7698 180.091,-33.8037 180.091,-33.8037 180.091,-33.8037 184.116,-36.7698 177.421,-37.4265 188.141,-39.7358 188.141,-39.7358"/>
</g>
<!-- Rule&#45;&gt;Condition -->
<g id="edge9" class="edge"><title>Rule&#45;&gt;Condition</title>
<path fill="none" stroke="#6ee062" d="M266.627,-65.0625C269.75,-58.6325 273.143,-51.6473 276.32,-45.106"/>
<ellipse fill="none" stroke="#6ee062" cx="264.805" cy="-68.8129" rx="4.00002" ry="4.00002"/>
<polygon fill="#6ee062" stroke="#6ee062" points="276.395,-44.9513 284.812,-37.9223 278.58,-40.4538 280.764,-35.9562 280.764,-35.9562 280.764,-35.9562 278.58,-40.4538 276.716,-33.9901 276.395,-44.9513 276.395,-44.9513"/>
</g>
<!-- RuleEngine -->
<g id="node8" class="node"><title>RuleEngine</title>
<polygon fill="none" stroke="black" points="663.25,-180 578.75,-180 578.75,-144 663.25,-144 663.25,-180"/>
<text text-anchor="middle" x="621" y="-158.3" font-family="Times,serif" font-size="14.00">RuleEngine</text>
</g>
<!-- Sensor -->
<g id="node9" class="node"><title>Sensor</title>
<ellipse fill="none" stroke="black" cx="309" cy="-162" rx="36.096" ry="18"/>
<text text-anchor="middle" x="309" y="-158.3" font-family="Times,serif" font-size="14.00">Sensor</text>
</g>
<!-- Sensor&#45;&gt;Condition -->
<g id="edge14" class="edge"><title>Sensor&#45;&gt;Condition</title>
<path fill="none" stroke="#83a1c3" d="M305.469,-135.929C301.919,-110.725 296.464,-71.9942 292.816,-46.0947"/>
<ellipse fill="none" stroke="#83a1c3" cx="306.03" cy="-139.911" rx="4.00001" ry="4.00001"/>
<polygon fill="#83a1c3" stroke="#83a1c3" points="292.816,-46.0915 295.877,-35.5616 292.118,-41.1404 291.421,-36.1893 291.421,-36.1893 291.421,-36.1893 292.118,-41.1404 286.965,-36.8169 292.816,-46.0915 292.816,-46.0915"/>
</g>
<!-- Sensor&#45;&gt;Rule -->
<g id="edge13" class="edge"><title>Sensor&#45;&gt;Rule</title>
<path fill="none" stroke="#5fe30c" d="M290.309,-136.771C284.778,-129.601 278.731,-121.762 273.229,-114.631"/>
<polygon fill="#5fe30c" stroke="#5fe30c" points="290.368,-136.847 292.913,-147.513 293.422,-140.806 296.476,-144.765 296.476,-144.765 296.476,-144.765 293.422,-140.806 300.039,-142.016 290.368,-136.847 290.368,-136.847"/>
<polygon fill="#5fe30c" stroke="#5fe30c" points="273.193,-114.584 270.648,-103.917 270.139,-110.625 267.085,-106.666 267.085,-106.666 267.085,-106.666 270.139,-110.625 263.522,-109.414 273.193,-114.584 273.193,-114.584"/>
</g>
<!-- ActiveRecord::Base -->
<g id="node10" class="node"><title>ActiveRecord::Base</title>
<ellipse fill="none" stroke="black" cx="309" cy="-255" rx="84.2388" ry="18"/>
<text text-anchor="middle" x="309" y="-251.3" font-family="Times,serif" font-size="14.00">ActiveRecord::Base</text>
</g>
<!-- ActiveRecord::Base&#45;&gt;Activity -->
<g id="edge1" class="edge"><title>ActiveRecord::Base&#45;&gt;Activity</title>
<path fill="none" stroke="black" d="M272.235,-238.705C224.77,-218.787 147.765,-185.814 144,-180 116.062,-136.852 136.243,-73.1208 150.024,-40.2828"/>
<polyline fill="none" stroke="black" points="152.004,-35.6681 150.032,-40.2629 "/>
</g>
<!-- ActiveRecord::Base&#45;&gt;Actor -->
<g id="edge5" class="edge"><title>ActiveRecord::Base&#45;&gt;Actor</title>
<path fill="none" stroke="black" d="M286.545,-237.521C264.337,-221.223 230.513,-196.4 208.088,-179.944"/>
<polyline fill="none" stroke="black" points="204.039,-176.972 208.07,-179.93 "/>
</g>
<!-- ActiveRecord::Base&#45;&gt;Condition -->
<g id="edge6" class="edge"><title>ActiveRecord::Base&#45;&gt;Condition</title>
<path fill="none" stroke="black" d="M323.064,-237.043C333.894,-222.813 347.996,-201.428 354,-180 358.317,-164.593 357.8,-159.542 354,-144 344.376,-104.632 319.982,-63.8621 303.968,-39.9957"/>
<polyline fill="none" stroke="black" points="301.081,-35.7402 303.888,-39.8779 "/>
</g>
<!-- ActiveRecord::Base&#45;&gt;Person -->
<g id="edge7" class="edge"><title>ActiveRecord::Base&#45;&gt;Person</title>
<path fill="none" stroke="black" d="M332.18,-237.521C354.968,-221.32 389.606,-196.694 412.755,-180.237"/>
<polyline fill="none" stroke="black" points="416.938,-177.263 412.863,-180.16 "/>
</g>
<!-- ActiveRecord::Base&#45;&gt;Room -->
<g id="edge8" class="edge"><title>ActiveRecord::Base&#45;&gt;Room</title>
<path fill="none" stroke="black" d="M345.811,-238.563C387.874,-220.924 455.956,-192.373 495.286,-175.88"/>
<polyline fill="none" stroke="black" points="499.936,-173.93 495.325,-175.864 "/>
</g>
<!-- ActiveRecord::Base&#45;&gt;Rule -->
<g id="edge11" class="edge"><title>ActiveRecord::Base&#45;&gt;Rule</title>
<path fill="none" stroke="black" d="M295.721,-237.156C285.199,-222.825 271.123,-201.241 264,-180 256.706,-158.249 254.833,-131.967 254.553,-113.624"/>
<polyline fill="none" stroke="black" points="254.514,-108.201 254.55,-113.201 "/>
</g>
<!-- ActiveRecord::Base&#45;&gt;Sensor -->
<g id="edge15" class="edge"><title>ActiveRecord::Base&#45;&gt;Sensor</title>
<path fill="none" stroke="black" d="M309,-236.884C309,-222.267 309,-201.143 309,-185.222"/>
<polyline fill="none" stroke="black" points="309,-180.04 309,-185.04 "/>
</g>
<!-- Object -->
<g id="node11" class="node"><title>Object</title>
<ellipse fill="none" stroke="black" cx="621" cy="-255" rx="35.1455" ry="18"/>
<text text-anchor="middle" x="621" y="-251.3" font-family="Times,serif" font-size="14.00">Object</text>
</g>
<!-- Object&#45;&gt;RuleEngine -->
<g id="edge12" class="edge"><title>Object&#45;&gt;RuleEngine</title>
<path fill="none" stroke="black" d="M621,-236.884C621,-222.267 621,-201.143 621,-185.222"/>
<polyline fill="none" stroke="black" points="621,-180.04 621,-185.04 "/>
</g>
</g>
</svg>
