<?xml version="1.0" encoding="UTF-8" standalone="no"?>
<!DOCTYPE svg PUBLIC "-//W3C//DTD SVG 1.1//EN"
 "http://www.w3.org/Graphics/SVG/1.1/DTD/svg11.dtd">
<!-- Generated by graphviz version 2.34.0 (20131024.1248)
 -->
<!-- Title: models_diagram Pages: 1 -->
<svg width="846pt" height="666pt"
 viewBox="0.00 0.00 845.83 666.00" xmlns="http://www.w3.org/2000/svg" xmlns:xlink="http://www.w3.org/1999/xlink">
<g id="graph0" class="graph" transform="scale(1 1) rotate(0) translate(4 662)">
<title>models_diagram</title>
<polygon fill="white" stroke="white" points="-4,4 -4,-662 841.833,-662 841.833,4 -4,4"/>
<!-- _diagram_info -->
<g id="node1" class="node"><title>_diagram_info</title>
<text text-anchor="start" x="20.3327" y="-643.6" font-family="Times,serif" font-size="13.00">Models diagram</text>
<text text-anchor="start" x="20.3327" y="-629.6" font-family="Times,serif" font-size="13.00">Date: May 26 2014 &#45; 11:09</text>
<text text-anchor="start" x="20.3327" y="-615.6" font-family="Times,serif" font-size="13.00">Migration version: 20140410072631</text>
<text text-anchor="start" x="20.3327" y="-601.6" font-family="Times,serif" font-size="13.00">Generated by RailRoady 1.1.1</text>
<text text-anchor="start" x="20.3327" y="-587.6" font-family="Times,serif" font-size="13.00">http://railroady.prestonlee.com</text>
</g>
<!-- Activity -->
<g id="node2" class="node"><title>Activity</title>
<path fill="none" stroke="black" d="M35.3327,-15.5C35.3327,-15.5 146.333,-15.5 146.333,-15.5 152.333,-15.5 158.333,-21.5 158.333,-27.5 158.333,-27.5 158.333,-124.5 158.333,-124.5 158.333,-130.5 152.333,-136.5 146.333,-136.5 146.333,-136.5 35.3327,-136.5 35.3327,-136.5 29.3327,-136.5 23.3327,-130.5 23.3327,-124.5 23.3327,-124.5 23.3327,-27.5 23.3327,-27.5 23.3327,-21.5 29.3327,-15.5 35.3327,-15.5"/>
<text text-anchor="middle" x="90.8327" y="-121.3" font-family="Times,serif" font-size="14.00">Activity</text>
<polyline fill="none" stroke="black" points="23.3327,-113.5 158.333,-113.5 "/>
<text text-anchor="start" x="31.3327" y="-98.3" font-family="Times,serif" font-size="14.00">id :integer</text>
<text text-anchor="start" x="31.3327" y="-83.3" font-family="Times,serif" font-size="14.00">value :integer</text>
<text text-anchor="start" x="31.3327" y="-68.3" font-family="Times,serif" font-size="14.00">actor_id :integer</text>
<text text-anchor="start" x="31.3327" y="-53.3" font-family="Times,serif" font-size="14.00">rule_id :integer</text>
<text text-anchor="start" x="31.3327" y="-38.3" font-family="Times,serif" font-size="14.00">created_at :datetime</text>
<text text-anchor="start" x="31.3327" y="-23.3" font-family="Times,serif" font-size="14.00">updated_at :datetime</text>
</g>
<!-- Actor -->
<g id="node3" class="node"><title>Actor</title>
<path fill="none" stroke="black" d="M70.8327,-369.5C70.8327,-369.5 184.833,-369.5 184.833,-369.5 190.833,-369.5 196.833,-375.5 196.833,-381.5 196.833,-381.5 196.833,-508.5 196.833,-508.5 196.833,-514.5 190.833,-520.5 184.833,-520.5 184.833,-520.5 70.8327,-520.5 70.8327,-520.5 64.8327,-520.5 58.8327,-514.5 58.8327,-508.5 58.8327,-508.5 58.8327,-381.5 58.8327,-381.5 58.8327,-375.5 64.8327,-369.5 70.8327,-369.5"/>
<text text-anchor="middle" x="127.833" y="-505.3" font-family="Times,serif" font-size="14.00">Actor</text>
<polyline fill="none" stroke="black" points="58.8327,-497.5 196.833,-497.5 "/>
<text text-anchor="start" x="66.8327" y="-482.3" font-family="Times,serif" font-size="14.00">id :integer</text>
<text text-anchor="start" x="66.8327" y="-467.3" font-family="Times,serif" font-size="14.00">name :string</text>
<text text-anchor="start" x="66.8327" y="-452.3" font-family="Times,serif" font-size="14.00">room_id :integer</text>
<text text-anchor="start" x="66.8327" y="-437.3" font-family="Times,serif" font-size="14.00">value :integer</text>
<text text-anchor="start" x="66.8327" y="-422.3" font-family="Times,serif" font-size="14.00">resource_type :string</text>
<text text-anchor="start" x="66.8327" y="-407.3" font-family="Times,serif" font-size="14.00">last_user :string</text>
<text text-anchor="start" x="66.8327" y="-392.3" font-family="Times,serif" font-size="14.00">created_at :datetime</text>
<text text-anchor="start" x="66.8327" y="-377.3" font-family="Times,serif" font-size="14.00">updated_at :datetime</text>
</g>
<!-- Actor&#45;&gt;Activity -->
<g id="edge4" class="edge"><title>Actor&#45;&gt;Activity</title>
<path fill="none" stroke="#d3723f" d="M119.475,-361.105C112.972,-296.595 104.047,-208.075 97.8973,-147.073"/>
<ellipse fill="none" stroke="#d3723f" cx="119.899" cy="-365.31" rx="4" ry="4"/>
<polygon fill="#d3723f" stroke="#d3723f" points="97.8619,-146.721 101.336,-136.32 97.3603,-141.746 96.8587,-136.772 96.8587,-136.772 96.8587,-136.772 97.3603,-141.746 92.3814,-137.223 97.8619,-146.721 97.8619,-146.721"/>
</g>
<!-- Condition -->
<g id="node4" class="node"><title>Condition</title>
<path fill="none" stroke="black" d="M227.333,-0.5C227.333,-0.5 338.333,-0.5 338.333,-0.5 344.333,-0.5 350.333,-6.5 350.333,-12.5 350.333,-12.5 350.333,-139.5 350.333,-139.5 350.333,-145.5 344.333,-151.5 338.333,-151.5 338.333,-151.5 227.333,-151.5 227.333,-151.5 221.333,-151.5 215.333,-145.5 215.333,-139.5 215.333,-139.5 215.333,-12.5 215.333,-12.5 215.333,-6.5 221.333,-0.5 227.333,-0.5"/>
<text text-anchor="middle" x="282.833" y="-136.3" font-family="Times,serif" font-size="14.00">Condition</text>
<polyline fill="none" stroke="black" points="215.333,-128.5 350.333,-128.5 "/>
<text text-anchor="start" x="223.333" y="-113.3" font-family="Times,serif" font-size="14.00">id :integer</text>
<text text-anchor="start" x="223.333" y="-98.3" font-family="Times,serif" font-size="14.00">operator :string</text>
<text text-anchor="start" x="223.333" y="-83.3" font-family="Times,serif" font-size="14.00">rule_id :integer</text>
<text text-anchor="start" x="223.333" y="-68.3" font-family="Times,serif" font-size="14.00">actor_id :integer</text>
<text text-anchor="start" x="223.333" y="-53.3" font-family="Times,serif" font-size="14.00">sensor_id :integer</text>
<text text-anchor="start" x="223.333" y="-38.3" font-family="Times,serif" font-size="14.00">value :integer</text>
<text text-anchor="start" x="223.333" y="-23.3" font-family="Times,serif" font-size="14.00">created_at :datetime</text>
<text text-anchor="start" x="223.333" y="-8.3" font-family="Times,serif" font-size="14.00">updated_at :datetime</text>
</g>
<!-- Actor&#45;&gt;Condition -->
<g id="edge3" class="edge"><title>Actor&#45;&gt;Condition</title>
<path fill="none" stroke="#aa8cbf" d="M118.328,-361.18C116.04,-308.713 120.215,-241.008 147.833,-188 161.44,-161.883 184.134,-139.614 207.069,-122.03"/>
<ellipse fill="none" stroke="#aa8cbf" cx="118.546" cy="-365.47" rx="4" ry="4"/>
<polygon fill="#aa8cbf" stroke="#aa8cbf" points="207.149,-121.97 217.86,-119.619 211.163,-118.988 215.177,-116.007 215.177,-116.007 215.177,-116.007 211.163,-118.988 212.493,-112.394 207.149,-121.97 207.149,-121.97"/>
</g>
<!-- Rule -->
<g id="node7" class="node"><title>Rule</title>
<path fill="none" stroke="black" d="M169.333,-188.5C169.333,-188.5 280.333,-188.5 280.333,-188.5 286.333,-188.5 292.333,-194.5 292.333,-200.5 292.333,-200.5 292.333,-297.5 292.333,-297.5 292.333,-303.5 286.333,-309.5 280.333,-309.5 280.333,-309.5 169.333,-309.5 169.333,-309.5 163.333,-309.5 157.333,-303.5 157.333,-297.5 157.333,-297.5 157.333,-200.5 157.333,-200.5 157.333,-194.5 163.333,-188.5 169.333,-188.5"/>
<text text-anchor="middle" x="224.833" y="-294.3" font-family="Times,serif" font-size="14.00">Rule</text>
<polyline fill="none" stroke="black" points="157.333,-286.5 292.333,-286.5 "/>
<text text-anchor="start" x="165.333" y="-271.3" font-family="Times,serif" font-size="14.00">id :integer</text>
<text text-anchor="start" x="165.333" y="-256.3" font-family="Times,serif" font-size="14.00">name :string</text>
<text text-anchor="start" x="165.333" y="-241.3" font-family="Times,serif" font-size="14.00">priority :integer</text>
<text text-anchor="start" x="165.333" y="-226.3" font-family="Times,serif" font-size="14.00">active :boolean</text>
<text text-anchor="start" x="165.333" y="-211.3" font-family="Times,serif" font-size="14.00">created_at :datetime</text>
<text text-anchor="start" x="165.333" y="-196.3" font-family="Times,serif" font-size="14.00">updated_at :datetime</text>
</g>
<!-- Actor&#45;&gt;Rule -->
<g id="edge2" class="edge"><title>Actor&#45;&gt;Rule</title>
<path fill="none" stroke="#a4d890" d="M169.866,-359.934C176.744,-346.176 183.8,-332.066 190.465,-318.735"/>
<polygon fill="#a4d890" stroke="#a4d890" points="169.669,-360.328 161.172,-367.26 167.433,-364.8 165.197,-369.272 165.197,-369.272 165.197,-369.272 167.433,-364.8 169.222,-371.285 169.669,-360.328 169.669,-360.328"/>
<polygon fill="#a4d890" stroke="#a4d890" points="190.538,-318.589 199.035,-311.658 192.774,-314.117 195.01,-309.645 195.01,-309.645 195.01,-309.645 192.774,-314.117 190.985,-307.633 190.538,-318.589 190.538,-318.589"/>
</g>
<!-- Person -->
<g id="node5" class="node"><title>Person</title>
<path fill="none" stroke="black" d="M459.333,-392C459.333,-392 570.333,-392 570.333,-392 576.333,-392 582.333,-398 582.333,-404 582.333,-404 582.333,-486 582.333,-486 582.333,-492 576.333,-498 570.333,-498 570.333,-498 459.333,-498 459.333,-498 453.333,-498 447.333,-492 447.333,-486 447.333,-486 447.333,-404 447.333,-404 447.333,-398 453.333,-392 459.333,-392"/>
<text text-anchor="middle" x="514.833" y="-482.8" font-family="Times,serif" font-size="14.00">Person</text>
<polyline fill="none" stroke="black" points="447.333,-475 582.333,-475 "/>
<text text-anchor="start" x="455.333" y="-459.8" font-family="Times,serif" font-size="14.00">id :integer</text>
<text text-anchor="start" x="455.333" y="-444.8" font-family="Times,serif" font-size="14.00">name :string</text>
<text text-anchor="start" x="455.333" y="-429.8" font-family="Times,serif" font-size="14.00">room_id :integer</text>
<text text-anchor="start" x="455.333" y="-414.8" font-family="Times,serif" font-size="14.00">created_at :datetime</text>
<text text-anchor="start" x="455.333" y="-399.8" font-family="Times,serif" font-size="14.00">updated_at :datetime</text>
</g>
<!-- Room -->
<g id="node6" class="node"><title>Room</title>
<path fill="none" stroke="black" d="M612.333,-399.5C612.333,-399.5 723.333,-399.5 723.333,-399.5 729.333,-399.5 735.333,-405.5 735.333,-411.5 735.333,-411.5 735.333,-478.5 735.333,-478.5 735.333,-484.5 729.333,-490.5 723.333,-490.5 723.333,-490.5 612.333,-490.5 612.333,-490.5 606.333,-490.5 600.333,-484.5 600.333,-478.5 600.333,-478.5 600.333,-411.5 600.333,-411.5 600.333,-405.5 606.333,-399.5 612.333,-399.5"/>
<text text-anchor="middle" x="667.833" y="-475.3" font-family="Times,serif" font-size="14.00">Room</text>
<polyline fill="none" stroke="black" points="600.333,-467.5 735.333,-467.5 "/>
<text text-anchor="start" x="608.333" y="-452.3" font-family="Times,serif" font-size="14.00">id :integer</text>
<text text-anchor="start" x="608.333" y="-437.3" font-family="Times,serif" font-size="14.00">name :string</text>
<text text-anchor="start" x="608.333" y="-422.3" font-family="Times,serif" font-size="14.00">created_at :datetime</text>
<text text-anchor="start" x="608.333" y="-407.3" font-family="Times,serif" font-size="14.00">updated_at :datetime</text>
</g>
<!-- Rule&#45;&gt;Activity -->
<g id="edge10" class="edge"><title>Rule&#45;&gt;Activity</title>
<path fill="none" stroke="#d551a5" d="M173.021,-181.883C163.473,-169.698 153.49,-156.959 143.906,-144.727"/>
<ellipse fill="none" stroke="#d551a5" cx="175.499" cy="-185.044" rx="4.00002" ry="4.00002"/>
<polygon fill="#d551a5" stroke="#d551a5" points="143.841,-144.645 141.215,-133.998 140.757,-140.709 137.673,-136.774 137.673,-136.774 137.673,-136.774 140.757,-140.709 134.131,-139.549 143.841,-144.645 143.841,-144.645"/>
</g>
<!-- Rule&#45;&gt;Condition -->
<g id="edge9" class="edge"><title>Rule&#45;&gt;Condition</title>
<path fill="none" stroke="#45d945" d="M247.691,-180.609C249.867,-174.191 252.093,-167.63 254.314,-161.08"/>
<ellipse fill="none" stroke="#45d945" cx="246.403" cy="-184.404" rx="4.00001" ry="4.00001"/>
<polygon fill="#45d945" stroke="#45d945" points="254.348,-160.98 261.822,-152.955 255.954,-156.245 257.56,-151.51 257.56,-151.51 257.56,-151.51 255.954,-156.245 253.299,-150.064 254.348,-160.98 254.348,-160.98"/>
</g>
<!-- RuleEngine -->
<g id="node8" class="node"><title>RuleEngine</title>
<polygon fill="none" stroke="black" points="753.333,-422 753.333,-468 838.333,-468 838.333,-422 753.333,-422"/>
<text text-anchor="middle" x="795.833" y="-452.8" font-family="Times,serif" font-size="14.00">RuleEngine</text>
<polyline fill="none" stroke="black" points="753.333,-445 838.333,-445 "/>
<text text-anchor="middle" x="795.833" y="-429.8" font-family="Times,serif" font-size="14.00"> </text>
</g>
<!-- Sensor -->
<g id="node9" class="node"><title>Sensor</title>
<path fill="none" stroke="black" d="M264.833,-347C264.833,-347 378.833,-347 378.833,-347 384.833,-347 390.833,-353 390.833,-359 390.833,-359 390.833,-531 390.833,-531 390.833,-537 384.833,-543 378.833,-543 378.833,-543 264.833,-543 264.833,-543 258.833,-543 252.833,-537 252.833,-531 252.833,-531 252.833,-359 252.833,-359 252.833,-353 258.833,-347 264.833,-347"/>
<text text-anchor="middle" x="321.833" y="-527.8" font-family="Times,serif" font-size="14.00">Sensor</text>
<polyline fill="none" stroke="black" points="252.833,-520 390.833,-520 "/>
<text text-anchor="start" x="260.833" y="-504.8" font-family="Times,serif" font-size="14.00">id :integer</text>
<text text-anchor="start" x="260.833" y="-489.8" font-family="Times,serif" font-size="14.00">name :string</text>
<text text-anchor="start" x="260.833" y="-474.8" font-family="Times,serif" font-size="14.00">room_id :integer</text>
<text text-anchor="start" x="260.833" y="-459.8" font-family="Times,serif" font-size="14.00">value :integer</text>
<text text-anchor="start" x="260.833" y="-444.8" font-family="Times,serif" font-size="14.00">resource_type :string</text>
<text text-anchor="start" x="260.833" y="-429.8" font-family="Times,serif" font-size="14.00">last_user :string</text>
<text text-anchor="start" x="260.833" y="-414.8" font-family="Times,serif" font-size="14.00">husband :boolean</text>
<text text-anchor="start" x="260.833" y="-399.8" font-family="Times,serif" font-size="14.00">wife :boolean</text>
<text text-anchor="start" x="260.833" y="-384.8" font-family="Times,serif" font-size="14.00">kid :boolean</text>
<text text-anchor="start" x="260.833" y="-369.8" font-family="Times,serif" font-size="14.00">created_at :datetime</text>
<text text-anchor="start" x="260.833" y="-354.8" font-family="Times,serif" font-size="14.00">updated_at :datetime</text>
</g>
<!-- Sensor&#45;&gt;Condition -->
<g id="edge14" class="edge"><title>Sensor&#45;&gt;Condition</title>
<path fill="none" stroke="#c018ce" d="M315.069,-338.628C311.613,-292.334 306.852,-237.38 300.833,-188 299.786,-179.411 298.562,-170.469 297.253,-161.554"/>
<ellipse fill="none" stroke="#c018ce" cx="315.383" cy="-342.881" rx="4" ry="4"/>
<polygon fill="#c018ce" stroke="#c018ce" points="297.232,-161.409 300.195,-150.851 296.489,-156.464 295.745,-151.52 295.745,-151.52 295.745,-151.52 296.489,-156.464 291.295,-152.189 297.232,-161.409 297.232,-161.409"/>
</g>
<!-- Sensor&#45;&gt;Rule -->
<g id="edge13" class="edge"><title>Sensor&#45;&gt;Rule</title>
<path fill="none" stroke="#246728" d="M268.595,-337.525C265.458,-331.251 262.348,-325.031 259.318,-318.971"/>
<polygon fill="#246728" stroke="#246728" points="268.718,-337.772 269.166,-348.728 270.955,-342.244 273.191,-346.716 273.191,-346.716 273.191,-346.716 270.955,-342.244 277.216,-344.703 268.718,-337.772 268.718,-337.772"/>
<polygon fill="#246728" stroke="#246728" points="259.102,-318.538 258.655,-307.582 256.866,-314.066 254.63,-309.594 254.63,-309.594 254.63,-309.594 256.866,-314.066 250.605,-311.607 259.102,-318.538 259.102,-318.538"/>
</g>
<!-- ActiveRecord::Base -->
<g id="node10" class="node"><title>ActiveRecord::Base</title>
<ellipse fill="none" stroke="black" cx="321.833" cy="-619" rx="84.2388" ry="18"/>
<text text-anchor="middle" x="321.833" y="-615.3" font-family="Times,serif" font-size="14.00">ActiveRecord::Base</text>
</g>
<!-- ActiveRecord::Base&#45;&gt;Activity -->
<g id="edge1" class="edge"><title>ActiveRecord::Base&#45;&gt;Activity</title>
<path fill="none" stroke="black" d="M287.56,-602.367C269.981,-594.807 248.062,-586.078 227.833,-580 150.533,-556.776 100.936,-606.474 49.8327,-544 -44.391,-428.812 16.8998,-239.929 59.6214,-141.388"/>
<polyline fill="none" stroke="black" points="61.641,-136.764 59.6395,-141.346 "/>
</g>
<!-- ActiveRecord::Base&#45;&gt;Actor -->
<g id="edge5" class="edge"><title>ActiveRecord::Base&#45;&gt;Actor</title>
<path fill="none" stroke="black" d="M292.897,-601.78C269.522,-587.978 236.42,-566.809 210.833,-544 204.022,-537.929 197.268,-531.295 190.726,-524.432"/>
<polyline fill="none" stroke="black" points="187.115,-520.598 190.543,-524.238 "/>
</g>
<!-- ActiveRecord::Base&#45;&gt;Condition -->
<g id="edge6" class="edge"><title>ActiveRecord::Base&#45;&gt;Condition</title>
<path fill="none" stroke="black" d="M347.849,-601.809C366.191,-588.74 389.294,-568.524 399.833,-544 434.575,-463.149 417.758,-432.155 399.833,-346 385.911,-279.088 354.433,-208.407 327.632,-156.296"/>
<polyline fill="none" stroke="black" points="325.218,-151.629 327.515,-156.07 "/>
</g>
<!-- ActiveRecord::Base&#45;&gt;Person -->
<g id="edge7" class="edge"><title>ActiveRecord::Base&#45;&gt;Person</title>
<path fill="none" stroke="black" d="M350.805,-601.82C374.201,-588.042 407.313,-566.885 432.833,-544 446.797,-531.477 460.482,-516.536 472.549,-502.141"/>
<polyline fill="none" stroke="black" points="475.908,-498.097 472.713,-501.943 "/>
</g>
<!-- ActiveRecord::Base&#45;&gt;Room -->
<g id="edge8" class="edge"><title>ActiveRecord::Base&#45;&gt;Room</title>
<path fill="none" stroke="black" d="M395.822,-610.391C452.998,-601.647 532.04,-583.079 590.833,-544 609.687,-531.467 625.992,-512.808 638.682,-495.124"/>
<polyline fill="none" stroke="black" points="641.83,-490.654 638.952,-494.742 "/>
</g>
<!-- ActiveRecord::Base&#45;&gt;Rule -->
<g id="edge11" class="edge"><title>ActiveRecord::Base&#45;&gt;Rule</title>
<path fill="none" stroke="black" d="M296.276,-601.603C278.168,-588.429 255.157,-568.172 243.833,-544 209.694,-471.13 210.34,-376.787 215.91,-314.886"/>
<polyline fill="none" stroke="black" points="216.39,-309.743 215.925,-314.722 "/>
</g>
<!-- ActiveRecord::Base&#45;&gt;Sensor -->
<g id="edge15" class="edge"><title>ActiveRecord::Base&#45;&gt;Sensor</title>
<path fill="none" stroke="black" d="M321.833,-600.879C321.833,-587.876 321.833,-568.81 321.833,-548.466"/>
<polyline fill="none" stroke="black" points="321.833,-543.27 321.833,-548.27 "/>
</g>
<!-- Object -->
<g id="node11" class="node"><title>Object</title>
<ellipse fill="none" stroke="black" cx="795.833" cy="-619" rx="35.1455" ry="18"/>
<text text-anchor="middle" x="795.833" y="-615.3" font-family="Times,serif" font-size="14.00">Object</text>
</g>
<!-- Object&#45;&gt;RuleEngine -->
<g id="edge12" class="edge"><title>Object&#45;&gt;RuleEngine</title>
<path fill="none" stroke="black" d="M795.833,-600.879C795.833,-570.994 795.833,-509.085 795.833,-473.25"/>
<polyline fill="none" stroke="black" points="795.833,-468.159 795.833,-473.159 "/>
</g>
</g>
</svg>
